<svg width="28" height="20" viewBox="0 0 28 20" fill="none" xmlns="http://www.w3.org/2000/svg">
<path d="M0 2C0 0.895431 0.895431 0 2 0H26C27.1046 0 28 0.895431 28 2C28 3.10457 27.1046 4 26 4H2C0.895431 4 0 3.10457 0 2Z" fill="white"/>
<path d="M0 10C0 8.89543 0.895431 8 2 8H26C27.1046 8 28 8.89543 28 10C28 11.1046 27.1046 12 26 12H2C0.895431 12 0 11.1046 0 10Z" fill="white"/>
<path d="M0 18C0 16.8954 0.895431 16 2 16H26C27.1046 16 28 16.8954 28 18C28 19.1046 27.1046 20 26 20H2C0.895431 20 0 19.1046 0 18Z" fill="white"/>
</svg>
