<svg width="100" height="70" viewBox="0 0 100 70" fill="none" xmlns="http://www.w3.org/2000/svg">
<path d="M94.3598 58.6857V0H5.33537V58.6857H0V63.2705L4.26829 69.2308H95.7317L100 63.2705V58.6857H94.3598ZM92.0732 2.29241V8.86398H7.62195V2.29241H92.0732ZM7.62195 11.3092H92.0732V58.6857H7.62195V11.3092ZM97.561 62.5064L94.5122 66.7855H5.33537L2.28659 62.5064V60.9781H97.561V62.5064Z" fill="#EE4444"/>
<path d="M23.3232 4.43199H21.0366V6.7244H23.3232V4.43199Z" fill="#EE4444"/>
<path d="M13.2622 4.43199H10.9756V6.7244H13.2622V4.43199Z" fill="#EE4444"/>
<path d="M18.2927 4.43199H16.0061V6.7244H18.2927V4.43199Z" fill="#EE4444"/>
<path d="M43.1402 15.5884H12.0427V36.9842H43.1402V15.5884ZM25.4573 26.2863L14.3293 33.7748V18.9506L25.4573 26.2863ZM16.9207 17.8808H38.1098L27.5915 24.9109L16.9207 17.8808ZM27.5915 27.6617L38.1098 34.6918H16.9207L27.5915 27.6617ZM29.5732 26.2863L40.7012 18.7978V33.622L29.5732 26.2863Z" fill="#EE4444"/>
<path d="M46.4939 36.9842H87.6524V15.5884H46.4939V36.9842ZM48.7805 17.8808H85.3659V34.6918H48.7805V17.8808Z" fill="#EE4444"/>
<path d="M12.0427 53.0311H87.6524V40.3464H12.0427V53.0311ZM14.3293 42.6388H85.3659V50.7387H14.3293V42.6388Z" fill="#EE4444"/>
</svg>
