<svg width="40" height="40" viewBox="0 0 40 40" fill="none" xmlns="http://www.w3.org/2000/svg">
<g clip-path="url(#clip0)">
<rect width="40" height="40" rx="5" fill="white"/>
<path d="M19.9995 16.0226C17.807 16.0226 16.0217 17.807 16.0217 19.9995C16.0217 22.1929 17.807 23.9782 19.9995 23.9782C22.1929 23.9782 23.9773 22.1929 23.9773 19.9995C23.9773 17.807 22.1929 16.0226 19.9995 16.0226ZM19.9995 16.0226C17.807 16.0226 16.0217 17.807 16.0217 19.9995C16.0217 22.1929 17.807 23.9782 19.9995 23.9782C22.1929 23.9782 23.9773 22.1929 23.9773 19.9995C23.9773 17.807 22.1929 16.0226 19.9995 16.0226ZM26.6262 9.53721H13.3737C11.2584 9.53721 9.53721 11.2584 9.53721 13.3737V26.6262C9.53721 28.7415 11.2584 30.4627 13.3737 30.4627H26.6262C28.7415 30.4627 30.4627 28.7415 30.4627 26.6262V13.3737C30.4627 11.2584 28.7415 9.53721 26.6262 9.53721ZM19.9995 26.8887C16.2017 26.8887 13.1112 23.7982 13.1112 19.9995C13.1112 16.2017 16.2017 13.1112 19.9995 13.1112C23.7982 13.1112 26.8887 16.2017 26.8887 19.9995C26.8887 23.7982 23.7982 26.8887 19.9995 26.8887ZM27.1099 14.5358C26.2111 14.5358 25.4799 13.8046 25.4799 12.9059C25.4799 12.0071 26.2111 11.2759 27.1099 11.2759C28.0086 11.2759 28.7398 12.0071 28.7398 12.9059C28.7398 13.8046 28.0086 14.5358 27.1099 14.5358ZM19.9995 16.0226C17.807 16.0226 16.0217 17.807 16.0217 19.9995C16.0217 22.1929 17.807 23.9782 19.9995 23.9782C22.1929 23.9782 23.9773 22.1929 23.9773 19.9995C23.9773 17.807 22.1929 16.0226 19.9995 16.0226ZM26.6262 9.53721H13.3737C11.2584 9.53721 9.53721 11.2584 9.53721 13.3737V26.6262C9.53721 28.7415 11.2584 30.4627 13.3737 30.4627H26.6262C28.7415 30.4627 30.4627 28.7415 30.4627 26.6262V13.3737C30.4627 11.2584 28.7415 9.53721 26.6262 9.53721ZM19.9995 26.8887C16.2017 26.8887 13.1112 23.7982 13.1112 19.9995C13.1112 16.2017 16.2017 13.1112 19.9995 13.1112C23.7982 13.1112 26.8887 16.2017 26.8887 19.9995C26.8887 23.7982 23.7982 26.8887 19.9995 26.8887ZM27.1099 14.5358C26.2111 14.5358 25.4799 13.8046 25.4799 12.9059C25.4799 12.0071 26.2111 11.2759 27.1099 11.2759C28.0086 11.2759 28.7398 12.0071 28.7398 12.9059C28.7398 13.8046 28.0086 14.5358 27.1099 14.5358ZM19.9995 16.0226C17.807 16.0226 16.0217 17.807 16.0217 19.9995C16.0217 22.1929 17.807 23.9782 19.9995 23.9782C22.1929 23.9782 23.9773 22.1929 23.9773 19.9995C23.9773 17.807 22.1929 16.0226 19.9995 16.0226ZM5 0C2.23858 0 0 2.23858 0 5V34.9999C0 37.7613 2.23858 39.9999 5 39.9999H34.9999C37.7613 39.9999 39.9999 37.7613 39.9999 34.9999V5C39.9999 2.23858 37.7613 0 34.9999 0H5ZM33.3732 26.6262C33.3732 30.3468 30.3468 33.3732 26.6262 33.3732H13.3737C9.65306 33.3732 6.62672 30.3468 6.62672 26.6262V13.3737C6.62672 9.65306 9.65306 6.62672 13.3737 6.62672H26.6262C30.3468 6.62672 33.3732 9.65306 33.3732 13.3737V26.6262ZM26.6262 9.53721H13.3737C11.2584 9.53721 9.53721 11.2584 9.53721 13.3737V26.6262C9.53721 28.7415 11.2584 30.4627 13.3737 30.4627H26.6262C28.7415 30.4627 30.4627 28.7415 30.4627 26.6262V13.3737C30.4627 11.2584 28.7415 9.53721 26.6262 9.53721ZM19.9995 26.8887C16.2017 26.8887 13.1112 23.7982 13.1112 19.9995C13.1112 16.2017 16.2017 13.1112 19.9995 13.1112C23.7982 13.1112 26.8887 16.2017 26.8887 19.9995C26.8887 23.7982 23.7982 26.8887 19.9995 26.8887ZM27.1099 14.5358C26.2111 14.5358 25.4799 13.8046 25.4799 12.9059C25.4799 12.0071 26.2111 11.2759 27.1099 11.2759C28.0086 11.2759 28.7398 12.0071 28.7398 12.9059C28.7398 13.8046 28.0086 14.5358 27.1099 14.5358ZM19.9995 16.0226C17.807 16.0226 16.0217 17.807 16.0217 19.9995C16.0217 22.1929 17.807 23.9782 19.9995 23.9782C22.1929 23.9782 23.9773 22.1929 23.9773 19.9995C23.9773 17.807 22.1929 16.0226 19.9995 16.0226ZM19.9995 16.0226C17.807 16.0226 16.0217 17.807 16.0217 19.9995C16.0217 22.1929 17.807 23.9782 19.9995 23.9782C22.1929 23.9782 23.9773 22.1929 23.9773 19.9995C23.9773 17.807 22.1929 16.0226 19.9995 16.0226ZM19.9995 16.0226C17.807 16.0226 16.0217 17.807 16.0217 19.9995C16.0217 22.1929 17.807 23.9782 19.9995 23.9782C22.1929 23.9782 23.9773 22.1929 23.9773 19.9995C23.9773 17.807 22.1929 16.0226 19.9995 16.0226ZM26.6262 9.53721H13.3737C11.2584 9.53721 9.53721 11.2584 9.53721 13.3737V26.6262C9.53721 28.7415 11.2584 30.4627 13.3737 30.4627H26.6262C28.7415 30.4627 30.4627 28.7415 30.4627 26.6262V13.3737C30.4627 11.2584 28.7415 9.53721 26.6262 9.53721ZM19.9995 26.8887C16.2017 26.8887 13.1112 23.7982 13.1112 19.9995C13.1112 16.2017 16.2017 13.1112 19.9995 13.1112C23.7982 13.1112 26.8887 16.2017 26.8887 19.9995C26.8887 23.7982 23.7982 26.8887 19.9995 26.8887ZM27.1099 14.5358C26.2111 14.5358 25.4799 13.8046 25.4799 12.9059C25.4799 12.0071 26.2111 11.2759 27.1099 11.2759C28.0086 11.2759 28.7398 12.0071 28.7398 12.9059C28.7398 13.8046 28.0086 14.5358 27.1099 14.5358ZM19.9995 16.0226C17.807 16.0226 16.0217 17.807 16.0217 19.9995C16.0217 22.1929 17.807 23.9782 19.9995 23.9782C22.1929 23.9782 23.9773 22.1929 23.9773 19.9995C23.9773 17.807 22.1929 16.0226 19.9995 16.0226ZM19.9995 16.0226C17.807 16.0226 16.0217 17.807 16.0217 19.9995C16.0217 22.1929 17.807 23.9782 19.9995 23.9782C22.1929 23.9782 23.9773 22.1929 23.9773 19.9995C23.9773 17.807 22.1929 16.0226 19.9995 16.0226ZM19.9995 16.0226C17.807 16.0226 16.0217 17.807 16.0217 19.9995C16.0217 22.1929 17.807 23.9782 19.9995 23.9782C22.1929 23.9782 23.9773 22.1929 23.9773 19.9995C23.9773 17.807 22.1929 16.0226 19.9995 16.0226ZM26.6262 9.53721H13.3737C11.2584 9.53721 9.53721 11.2584 9.53721 13.3737V26.6262C9.53721 28.7415 11.2584 30.4627 13.3737 30.4627H26.6262C28.7415 30.4627 30.4627 28.7415 30.4627 26.6262V13.3737C30.4627 11.2584 28.7415 9.53721 26.6262 9.53721ZM19.9995 26.8887C16.2017 26.8887 13.1112 23.7982 13.1112 19.9995C13.1112 16.2017 16.2017 13.1112 19.9995 13.1112C23.7982 13.1112 26.8887 16.2017 26.8887 19.9995C26.8887 23.7982 23.7982 26.8887 19.9995 26.8887ZM27.1099 14.5358C26.2111 14.5358 25.4799 13.8046 25.4799 12.9059C25.4799 12.0071 26.2111 11.2759 27.1099 11.2759C28.0086 11.2759 28.7398 12.0071 28.7398 12.9059C28.7398 13.8046 28.0086 14.5358 27.1099 14.5358ZM19.9995 16.0226C17.807 16.0226 16.0217 17.807 16.0217 19.9995C16.0217 22.1929 17.807 23.9782 19.9995 23.9782C22.1929 23.9782 23.9773 22.1929 23.9773 19.9995C23.9773 17.807 22.1929 16.0226 19.9995 16.0226Z" fill="#C536A4"/>
</g>
<defs>
<clipPath id="clip0">
<rect width="39.9999" height="39.9999" fill="white"/>
</clipPath>
</defs>
</svg>
