<svg width="40" height="40" viewBox="0 0 40 40" fill="none" xmlns="http://www.w3.org/2000/svg">
<path d="M20 40C31.0457 40 40 31.0457 40 20C40 8.9543 31.0457 0 20 0C8.9543 0 0 8.9543 0 20C0 31.0457 8.9543 40 20 40Z" fill="#3355BB"/>
<path d="M29.2742 10.3846C26.8846 10.6871 24.393 10.6765 21.8855 10.4378C18.3838 10.1684 13.266 8.55224 11.3804 11.7846C8.35137 16.9593 9.84536 23.5842 10.5512 29.4469L21.0775 39.971C31.2641 39.4301 39.428 31.2673 39.9706 21.0812L29.2742 10.3846Z" fill="#223399"/>
<path d="M24.6271 8.55225H15.3728C11.6119 8.55225 8.55219 11.6119 8.55219 15.3729V24.6272C8.55219 28.388 11.6119 31.4479 15.3729 31.4479H24.6272C28.388 31.4479 31.4479 28.3881 31.4479 24.6272V15.3729C31.4478 11.6119 28.388 8.55225 24.6271 8.55225ZM29.1445 24.6272C29.1445 27.1221 27.122 29.1446 24.6272 29.1446H15.3729C12.878 29.1446 10.8555 27.1221 10.8555 24.6272V15.3729C10.8555 12.8781 12.878 10.8555 15.3729 10.8555H24.6272C27.122 10.8555 29.1445 12.8782 29.1445 15.3729V24.6272Z" fill="white"/>
<path d="M20 14.0784C16.7349 14.0784 14.0783 16.7349 14.0783 20.0001C14.0783 23.265 16.7349 25.9216 20 25.9216C23.2652 25.9216 25.9215 23.2652 25.9215 20.0001C25.9215 16.7349 23.2652 14.0784 20 14.0784ZM20 23.6183C18.0017 23.6183 16.3816 21.9985 16.3816 20.0001C16.3816 18.0017 18.0017 16.3817 20 16.3817C21.9984 16.3817 23.6182 18.0016 23.6182 20.0001C23.6182 21.9984 21.9984 23.6183 20 23.6183Z" fill="white"/>
<path d="M27.3518 14.1231C27.3518 14.9067 26.7164 15.5421 25.9328 15.5421C25.1492 15.5421 24.5138 14.9067 24.5138 14.1231C24.5138 13.3394 25.1492 12.7041 25.9328 12.7041C26.7166 12.7041 27.3518 13.3393 27.3518 14.1231Z" fill="#DFDFDF"/>
<path d="M24.6272 8.55225H19.9551V10.8555H24.6272C27.122 10.8555 29.1445 12.8782 29.1445 15.3729V24.6272C29.1445 27.1221 27.122 29.1446 24.6272 29.1446H19.9551V31.4479H24.6272C28.388 31.4479 31.4478 28.3881 31.4478 24.6272V15.3729C31.4478 11.6119 28.388 8.55225 24.6272 8.55225Z" fill="#DFDFDF"/>
<path d="M20 14.0784C19.9849 14.0784 19.9702 14.0795 19.9551 14.0795V16.3827C19.9701 16.3826 19.9849 16.3817 20 16.3817C21.9983 16.3817 23.6182 18.0016 23.6182 20.0001C23.6182 21.9984 21.9984 23.6183 20 23.6183C19.9849 23.6183 19.9701 23.6174 19.9551 23.6172V25.9205C19.9702 25.9206 19.9849 25.9216 20 25.9216C23.2651 25.9216 25.9215 23.2652 25.9215 20.0001C25.9215 16.7349 23.2651 14.0784 20 14.0784Z" fill="#DFDFDF"/>
</svg>
