<svg width="40" height="40" viewBox="0 0 40 40" fill="none" xmlns="http://www.w3.org/2000/svg">
<g clip-path="url(#clip0)">
<path d="M20.0009 39.9998C31.0466 39.9998 40.0008 31.0456 40.0008 19.9999C40.0008 8.95427 31.0466 0 20.0009 0C8.95525 0 0.000976562 8.95427 0.000976562 19.9999C0.000976562 31.0456 8.95525 39.9998 20.0009 39.9998Z" fill="#3355BB"/>
<path d="M39.9229 18.2525L30.8381 9.15601C25.2885 9.87764 19.4889 9.76999 13.9393 9.89905C11.6498 9.89905 9.36018 10.9765 9.76424 13.5354C10.5723 18.6532 10.9763 23.6363 10.0336 28.8888C9.88518 29.5564 9.57291 30.2239 9.1651 30.8465L18.2405 39.9221C18.8203 39.9725 19.4069 39.9999 19.9998 39.9999C31.0454 39.9999 39.9997 31.0455 39.9997 19.9999C39.9999 19.4109 39.9729 18.8284 39.9229 18.2525Z" fill="#223399"/>
<path d="M29.3767 8.552H10.6233C9.47935 8.552 8.55225 9.47911 8.55225 10.6231V29.3763C8.55225 30.52 9.47935 31.4474 10.6233 31.4474H29.3765C30.5202 31.4474 31.4476 30.52 31.4476 29.3763V10.6231C31.4478 9.47911 30.5204 8.552 29.3767 8.552ZM15.6371 28.3214C15.6371 28.6544 15.3673 28.9242 15.0343 28.9242H12.4689C12.1358 28.9242 11.8661 28.6543 11.8661 28.3214V17.5667C11.8661 17.2336 12.136 16.9638 12.4689 16.9638H15.0344C15.3675 16.9638 15.6372 17.2338 15.6372 17.5667V28.3214H15.6371ZM13.7515 15.9499C12.4054 15.9499 11.3143 14.8586 11.3143 13.5124C11.3143 12.1664 12.4054 11.0752 13.7515 11.0752C15.0978 11.0752 16.1889 12.1665 16.1889 13.5124C16.1889 14.8588 15.0977 15.9499 13.7515 15.9499ZM29.0447 28.37C29.0447 28.6761 28.7966 28.9243 28.4908 28.9243H25.7375C25.4316 28.9243 25.1834 28.6761 25.1834 28.37V23.3251C25.1834 22.5728 25.4042 20.0275 23.2169 20.0275C21.5201 20.0275 21.1759 21.7697 21.1069 22.5512V28.3698C21.1069 28.6759 20.8588 28.9242 20.5527 28.9242H17.89C17.5839 28.9242 17.3356 28.676 17.3356 28.3698V17.5181C17.3356 17.212 17.5838 16.9637 17.89 16.9637H20.5527C20.8588 16.9637 21.1069 17.2119 21.1069 17.5181V18.4563C21.7361 17.5121 22.6712 16.7831 24.6617 16.7831C29.0699 16.7831 29.0449 20.9016 29.0449 23.1648V28.37H29.0447V28.37Z" fill="white"/>
<path d="M29.3767 8.552H19.9551V16.9637H20.5526C20.8587 16.9637 21.1068 17.2119 21.1068 17.5181V18.4563C21.736 17.5121 22.6711 16.7831 24.6617 16.7831C29.0699 16.7831 29.0449 20.9016 29.0449 23.1648V28.3699C29.0449 28.676 28.7968 28.9243 28.491 28.9243H25.7377C25.4318 28.9243 25.1836 28.6761 25.1836 28.3699V23.3251C25.1836 22.5727 25.4044 20.0274 23.2171 20.0274C21.5203 20.0274 21.1761 21.7696 21.1071 22.5512V28.3697C21.1071 28.6758 20.859 28.9241 20.5529 28.9241H19.9555V31.4476H29.377C30.5206 31.4476 31.4481 30.5202 31.4481 29.3765V10.6231C31.4478 9.47911 30.5203 8.552 29.3767 8.552Z" fill="#DFDFDF"/>
</g>
<defs>
<clipPath id="clip0">
<rect width="40" height="40" fill="white"/>
</clipPath>
</defs>
</svg>
