<svg width="159" height="19" viewBox="0 0 159 19" fill="none" xmlns="http://www.w3.org/2000/svg">
<path d="M152 9V18H6L3 15.5V9H93.5V6.5H95L96 9H99L100.5 12.5H101L101.5 9H152Z" fill="#EE4444"/>
<path d="M14.0234 15.8438C13.3906 16.6016 12.4961 17.1914 11.3398 17.6133C10.1836 18.0273 8.90234 18.2344 7.49609 18.2344C6.01953 18.2344 4.72266 17.9141 3.60547 17.2734C2.49609 16.625 1.63672 15.6875 1.02734 14.4609C0.425781 13.2344 0.117188 11.793 0.101562 10.1367V8.97656C0.101562 7.27344 0.386719 5.80078 0.957031 4.55859C1.53516 3.30859 2.36328 2.35547 3.44141 1.69922C4.52734 1.03516 5.79688 0.703125 7.25 0.703125C9.27344 0.703125 10.8555 1.1875 11.9961 2.15625C13.1367 3.11719 13.8125 4.51953 14.0234 6.36328H10.6016C10.4453 5.38672 10.0977 4.67188 9.55859 4.21875C9.02734 3.76562 8.29297 3.53906 7.35547 3.53906C6.16016 3.53906 5.25 3.98828 4.625 4.88672C4 5.78516 3.68359 7.12109 3.67578 8.89453V9.98438C3.67578 11.7734 4.01562 13.125 4.69531 14.0391C5.375 14.9531 6.37109 15.4102 7.68359 15.4102C9.00391 15.4102 9.94531 15.1289 10.5078 14.5664V11.625H7.30859V9.03516H14.0234V15.8438Z" fill="white"/>
<path d="M32.1969 0.9375V12.1758C32.1969 14.043 31.6109 15.5195 30.4391 16.6055C29.275 17.6914 27.6812 18.2344 25.6578 18.2344C23.6656 18.2344 22.0836 17.707 20.9117 16.6523C19.7398 15.5977 19.1422 14.1484 19.1187 12.3047V0.9375H22.6344V12.1992C22.6344 13.3164 22.9 14.1328 23.4312 14.6484C23.9703 15.1562 24.7125 15.4102 25.6578 15.4102C27.6344 15.4102 28.6383 14.3711 28.6695 12.293V0.9375H32.1969Z" fill="white"/>
<path d="M41.218 18H37.7023V0.9375H41.218V18Z" fill="white"/>
<path d="M69.1508 18H65.6352V10.6875H58.7797V18H55.2641V0.9375H58.7797V7.85156H65.6352V0.9375H69.1508V18Z" fill="white"/>
<path d="M84.8984 10.6055H78.1484V15.1758H86.0703V18H74.6328V0.9375H86.0469V3.78516H78.1484V7.85156H84.8984V10.6055Z" fill="white"/>
<path d="M104.408 18H100.892L94.0484 6.77344V18H90.5328V0.9375H94.0484L100.904 12.1875V0.9375H104.408V18Z" fill="white"/>
<path d="M116.195 11.7539H113.394V18H109.878V0.9375H116.218C118.234 0.9375 119.788 1.38672 120.882 2.28516C121.976 3.18359 122.523 4.45312 122.523 6.09375C122.523 7.25781 122.269 8.23047 121.761 9.01172C121.261 9.78516 120.499 10.4023 119.476 10.8633L123.167 17.8359V18H119.394L116.195 11.7539ZM113.394 8.90625H116.23C117.113 8.90625 117.796 8.68359 118.28 8.23828C118.765 7.78516 119.007 7.16406 119.007 6.375C119.007 5.57031 118.777 4.9375 118.316 4.47656C117.863 4.01562 117.163 3.78516 116.218 3.78516H113.394V8.90625Z" fill="white"/>
<path d="M133.923 11.7539H131.122V18H127.606V0.9375H133.946C135.962 0.9375 137.516 1.38672 138.61 2.28516C139.704 3.18359 140.251 4.45312 140.251 6.09375C140.251 7.25781 139.997 8.23047 139.489 9.01172C138.989 9.78516 138.227 10.4023 137.204 10.8633L140.895 17.8359V18H137.122L133.923 11.7539ZM131.122 8.90625H133.958C134.841 8.90625 135.524 8.68359 136.009 8.23828C136.493 7.78516 136.735 7.16406 136.735 6.375C136.735 5.57031 136.505 4.9375 136.044 4.47656C135.591 4.01562 134.891 3.78516 133.946 3.78516H131.122V8.90625Z" fill="white"/>
<path d="M150.655 8.625L154.205 0.9375H158.049L152.448 11.8125V18H148.873V11.8125L143.272 0.9375H147.127L150.655 8.625Z" fill="white"/>
</svg>
