<svg width="40" height="40" viewBox="0 0 40 40" fill="none" xmlns="http://www.w3.org/2000/svg">
<g clip-path="url(#clip0)">
<path d="M20 40C31.0457 40 40 31.0457 40 20C40 8.9543 31.0457 0 20 0C8.9543 0 0 8.9543 0 20C0 31.0457 8.9543 40 20 40Z" fill="#3355BB"/>
<path d="M28.1439 11.8614C26.9842 11.5714 25.2789 10.5699 24.1751 10.1684C19.8653 8.82158 14.0741 9.89901 12.4579 14.8822C12.3232 15.0169 12.0539 15.0169 11.9192 15.0169C8.68682 18.7879 10.8417 23.3671 10.5724 27.5421C10.4804 29.0139 9.70651 30.3153 8.71057 31.4162L17.092 39.7889C18.0415 39.9271 19.0121 40 20 40C29.8778 40 38.0822 32.8387 39.7068 23.4249L28.1439 11.8614Z" fill="#223399"/>
<path d="M19.4404 8.47234C13.3444 8.76234 8.53382 13.8392 8.55218 19.9419C8.5578 21.8007 9.00655 23.5552 9.79827 25.1056L8.58288 31.0052C8.51718 31.3244 8.80499 31.6038 9.12202 31.5287L14.9029 30.1591C16.3881 30.8991 18.0563 31.3262 19.8218 31.3532C26.0525 31.4484 31.2476 26.5012 31.4421 20.2728C31.6501 13.5964 26.1399 8.1532 19.4404 8.47234ZM26.3383 26.2449C24.6454 27.9378 22.3943 28.8702 20 28.8702C18.5981 28.8702 17.2558 28.5556 16.0105 27.9354L15.2056 27.5343L11.6611 28.3739L12.4071 24.7523L12.0106 23.9755C11.3641 22.7094 11.0362 21.3405 11.0362 19.9065C11.0362 17.5121 11.9687 15.2612 13.6616 13.5682C15.3394 11.8902 17.6271 10.9429 20.0001 10.9429C22.3942 10.9429 24.6453 11.8753 26.3382 13.5682C28.0311 15.2611 28.9635 17.5122 28.9635 19.9062C28.9637 22.2794 28.0162 24.567 26.3383 26.2449Z" fill="white"/>
<path d="M25.5558 22.3892L23.3383 21.7525C23.047 21.669 22.733 21.7518 22.5205 21.9682L21.9782 22.5205C21.7496 22.7536 21.4027 22.8284 21.1001 22.706C20.0511 22.2814 17.8444 20.3194 17.2812 19.3383C17.1184 19.0552 17.1454 18.7014 17.3451 18.4429L17.8183 17.8304C18.0038 17.5906 18.0429 17.2682 17.9203 16.9908L16.9874 14.8808C16.764 14.3755 16.1182 14.2283 15.6962 14.5852C15.0774 15.1087 14.3431 15.904 14.254 16.7852C14.0966 18.3389 14.763 20.2972 17.2823 22.6489C20.193 25.3659 22.524 25.7246 24.0419 25.357C24.9027 25.1486 25.5907 24.3129 26.0246 23.6284C26.3208 23.1614 26.0867 22.5418 25.5558 22.3892Z" fill="white"/>
<path d="M27.8128 11.5398L26.0766 13.3193C26.165 13.401 26.253 13.4831 26.3384 13.5686C28.0314 15.2615 28.9638 17.5126 28.9638 19.9067C28.9638 22.2797 28.0163 24.5673 26.3384 26.2453C24.6456 27.9382 22.3945 28.8706 20.0002 28.8706C18.5983 28.8706 17.256 28.556 16.0106 27.9357L15.2058 27.5346L11.6613 28.3742L11.7345 28.0185L8.59595 31.2351C8.66517 31.4432 8.8854 31.5847 9.12204 31.5287L14.9029 30.1592C16.3881 30.8991 18.0563 31.3263 19.8218 31.3532C26.0525 31.4485 31.2478 26.5013 31.4421 20.2728C31.5495 16.8249 30.1317 13.706 27.8128 11.5398Z" fill="#DFDFDF"/>
<path d="M25.5559 22.3893L23.3384 21.7527C23.047 21.6692 22.733 21.7519 22.5206 21.9683L21.9782 22.5207C21.7496 22.7538 21.4027 22.8285 21.1001 22.7061C20.4941 22.4609 19.5023 21.7026 18.6638 20.9167L17.1222 22.4968C17.1751 22.5475 17.2278 22.598 17.2823 22.649C20.1931 25.366 22.5241 25.7247 24.042 25.3571C24.9028 25.1488 25.5908 24.313 26.0247 23.6285C26.3208 23.1616 26.0867 22.5419 25.5559 22.3893Z" fill="#D1D1D1"/>
</g>
<defs>
<clipPath id="clip0">
<rect width="40" height="40" fill="white"/>
</clipPath>
</defs>
</svg>
