<svg width="40" height="40" viewBox="0 0 40 40" fill="none" xmlns="http://www.w3.org/2000/svg">
<path d="M35 0H5C2.23858 0 0 2.23858 0 5V35C0 37.7614 2.23858 40 5 40H35C37.7614 40 40 37.7614 40 35V5C40 2.23858 37.7614 0 35 0Z" fill="#1BD741"/>
<path d="M6.01178 34.0034L7.97109 27.0445C6.71114 24.9041 6.04777 22.4687 6.04777 19.9668C6.04777 12.2636 12.3148 5.99658 20.018 5.99658C27.7213 5.99658 33.9882 12.2636 33.9882 19.9668C33.9882 27.6701 27.7213 33.9371 20.018 33.9371C17.6177 33.9371 15.2674 33.3227 13.1882 32.156L6.01178 34.0034ZM13.5551 29.6145L13.9827 29.8756C15.7955 30.9823 17.8826 31.5673 20.018 31.5673C26.4145 31.5673 31.6184 26.3633 31.6184 19.9668C31.6184 13.5703 26.4145 8.3664 20.018 8.3664C13.6215 8.3664 8.41758 13.5703 8.41758 19.9668C8.41758 22.1956 9.05103 24.36 10.2493 26.2259L10.5373 26.6743L9.40896 30.6818L13.5551 29.6145Z" fill="white"/>
<path d="M16.0936 13.4646L15.1871 13.4152C14.9024 13.3997 14.6231 13.4948 14.4079 13.6818C13.9684 14.0634 13.2657 14.8012 13.0499 15.7627C12.728 17.1962 13.2254 18.9516 14.5128 20.7071C15.8001 22.4625 18.1992 25.2712 22.4414 26.4707C23.8084 26.8573 24.8838 26.5967 25.7135 26.0659C26.3706 25.6456 26.8236 24.9709 26.9869 24.2082L27.1316 23.5322C27.1776 23.3173 27.0685 23.0993 26.8689 23.0073L23.8053 21.5951C23.6064 21.5035 23.3705 21.5614 23.2368 21.7348L22.0341 23.2939C21.9432 23.4117 21.7877 23.4584 21.6472 23.4091C20.8236 23.1196 18.0646 21.9641 16.5507 19.048C16.4851 18.9215 16.5014 18.768 16.5945 18.6602L17.744 17.3304C17.8614 17.1946 17.8911 17.0037 17.8205 16.8387L16.4999 13.7491C16.4296 13.5846 16.2721 13.4744 16.0936 13.4646Z" fill="white"/>
</svg>
